# xmcd CD database file
#
# Track frame offsets:
#	150
#	20550
#	40687
#	71175
#
# Disc length: 1219 seconds
#
# Revision: 0
# Processed by: cddbd v1.5PL3 Copyright (c) Steve Scherf et al.
# Submitted via: CDex 1.51
#
DISCID=3004c104
DTITLE=ミスMaps - Believe
DYEAR=1999
DGENRE=JPop
TTITLE0=Believe
TTITLE1=Kiss Never Lies
TTITLE2=Believe (T.Y.O. Sequence Version)
TTITLE3=Believe (Instrumental Version)
EXTD=YEAR: 1999
EXTT0=
EXTT1=
EXTT2=
EXTT3=
PLAYORDER=
